<svg xmlns="http://www.w3.org/2000/svg" viewBox="0 0 64 64">
  <defs>
    <linearGradient id="aurora-bg" x1="10" y1="8" x2="54" y2="56" gradientUnits="userSpaceOnUse">
      <stop offset="0" stop-color="#d8b091" />
      <stop offset="1" stop-color="#5d3825" />
    </linearGradient>
  </defs>
  <rect x="6" y="6" width="52" height="52" rx="18" fill="url(#aurora-bg)" />
  <path d="M21 24h16a4 4 0 0 1 4 4v4a9 9 0 0 1-9 9h-6a9 9 0 0 1-9-9v-4a4 4 0 0 1 4-4Z" fill="#fff7f0" />
  <path d="M41 27h2.5a3.5 3.5 0 1 1 0 7H41" fill="none" stroke="#fff7f0" stroke-width="2.4" stroke-linecap="round" stroke-linejoin="round" />
  <path d="M23 44h18" stroke="#fff7f0" stroke-width="2.4" stroke-linecap="round" />
  <path d="M27 18c1.8 1.5 2.2 3.1 1.1 5M33 16c1.8 1.5 2.2 3.1 1.1 5" fill="none" stroke="#fff7f0" stroke-width="2.2" stroke-linecap="round" />
</svg>
